HIERARCHY
ROOT Hips
{
	OFFSET 0.00 0.00 0.00
	CHANNELS 6 Xposition Yposition Zposition Xrotation Yrotation Zrotation
	JOINT Spine
	{
		OFFSET 0.00000 0.84964 1.27446
		CHANNELS 3 Xrotation Yrotation Zrotation
		JOINT Spine1
		{
			OFFSET 0.00000 0.29508 1.67346
			CHANNELS 3 Xrotation Yrotation Zrotation
			JOINT Spine2
			{
				OFFSET 0.00000 0.14810 1.69281
				CHANNELS 3 Xrotation Yrotation Zrotation
				JOINT Spine3
				{
					OFFSET 0.00000 0.00000 1.69928
					CHANNELS 3 Xrotation Yrotation Zrotation
					JOINT Neck
					{
						OFFSET 0.00000 -0.63723 4.46061
						CHANNELS 3 Xrotation Yrotation Zrotation
						JOINT Head
						{
							OFFSET 0.00000 -0.40573 2.30101
							CHANNELS 3 Xrotation Yrotation Zrotation
							End Site
							{
								OFFSET 0.00000 0.00000 2.75071
							}
						}
					}
					JOINT RightShoulder
					{
						OFFSET -0.72014 -1.20022 3.88874
						CHANNELS 3 Xrotation Yrotation Zrotation
						JOINT RightArm
						{
							OFFSET -3.57668 0.00000 0.00000
							CHANNELS 3 Xrotation Yrotation Zrotation
							JOINT RightForeArm
							{
								OFFSET -5.92485 0.00000 0.00000
								CHANNELS 3 Xrotation Yrotation Zrotation
								JOINT RightHand
								{
									OFFSET -6.63013 0.00000 0.00000
									CHANNELS 3 Xrotation Yrotation Zrotation
									JOINT RightHandEnd
									{
										OFFSET -1.65321 0.00000 0.00000
										CHANNELS 3 Xrotation Yrotation Zrotation
										End Site
										{
											OFFSET -1.65321 0.00000 0.00000
										}
									}
									JOINT RightHandThumb1
									{
										OFFSET -0.66129 -1.10214 -0.44086
										CHANNELS 3 Yrotation Xrotation Zrotation
										End Site
										{
											OFFSET -1.59688 -0.42788 0.00000
										}
									}
								}
							}
						}
					}
					JOINT LeftShoulder
					{
						OFFSET 0.72014 -1.20022 3.88874
						CHANNELS 3 Xrotation Yrotation Zrotation
						JOINT LeftArm
						{
							OFFSET 3.57668 0.00000 0.00000
							CHANNELS 3 Xrotation Yrotation Zrotation
							JOINT LeftForeArm
							{
								OFFSET 5.92485 0.00000 0.00000
								CHANNELS 3 Xrotation Yrotation Zrotation
								JOINT LeftHand
								{
									OFFSET 6.63013 0.00000 0.00000
									CHANNELS 3 Xrotation Yrotation Zrotation
									JOINT LeftHandEnd
									{
										OFFSET 1.65321 0.00000 0.00000
										CHANNELS 3 Xrotation Yrotation Zrotation
										End Site
										{
											OFFSET 1.65321 0.00000 0.00000
										}
									}
									JOINT LeftHandThumb1
									{
										OFFSET 0.66129 -1.10214 -0.44086
										CHANNELS 3 Yrotation Xrotation Zrotation
										End Site
										{
											OFFSET 1.59688 -0.42788 0.00000
										}
									}
								}
							}
						}
					}
				}
			}
		}
	}
	JOINT RightUpLeg
	{
		OFFSET -2.13640 0.00000 -0.62412
		CHANNELS 3 Xrotation Yrotation Zrotation
		JOINT RightLeg
		{
			OFFSET 0.00000 0.00000 -11.49360
			CHANNELS 3 Xrotation Yrotation Zrotation
			JOINT RightFoot
			{
				OFFSET 0.00000 0.00000 -8.79036
				CHANNELS 3 Xrotation Yrotation Zrotation
				JOINT RightToeBase
				{
					OFFSET 0.00000 -3.94625 -1.43632
					CHANNELS 3 Xrotation Yrotation Zrotation
					End Site
					{
						OFFSET 0.00000 -1.72833 -0.00000
					}
				}
			}
		}
	}
	JOINT LeftUpLeg
	{
		OFFSET 2.13640 0.00000 -0.62412
		CHANNELS 3 Xrotation Yrotation Zrotation
		JOINT LeftLeg
		{
			OFFSET 0.00000 0.00000 -11.49360
			CHANNELS 3 Xrotation Yrotation Zrotation
			JOINT LeftFoot
			{
				OFFSET 0.00000 0.00000 -8.79036
				CHANNELS 3 Xrotation Yrotation Zrotation
				JOINT LeftToeBase
				{
					OFFSET 0.00000 -3.94625 -1.43632
					CHANNELS 3 Xrotation Yrotation Zrotation
					End Site
					{
						OFFSET 0.00000 -1.72833 -0.00000
					}
				}
			}
		}
	}
}
MOTION
Frames: 6
Frame Time: 0.008342
 -1.0611 -116.8030 23.1484 -1.3234 -3.4687 173.8068 -1.1970 -3.2394 -0.1316 -0.9576 -0.8098 -0.0520 0.9655 -0.7759 3.6342 0.3222 5.9505 -0.5516 0.1061 6.4959 -2.7530 9.4633 -9.5073 -8.1793 0.5380 3.4350 -5.7044 6.2869 0.7693 -14.5898 0.0000 0.0000 11.4830 4.6025 -4.7093 -18.4016 0.0000 0.0000 -0.0000 -0.0000 -0.0000 -0.0000 -1.6468 -6.4308 9.4758 -4.8285 0.8892 -0.0713 -0.0000 -0.0000 -8.2755 -5.0542 -16.1246 12.4743 0.0000 -0.0000 -0.0000 -0.0000 -0.0000 -0.0000 0.5957 0.0095 -57.5765 3.7587 0.0000 0.0000 -8.4731 -3.9252 52.0982 -0.9397 0.0000 -0.0000 4.8659 1.3470 23.4051 -7.5913 0.0000 -0.0000 -4.1129 -3.9392 -12.0216 -0.0468 0.0000 -0.0000
 -1.0670 -116.8097 23.1476 -1.3146 -3.4666 173.8186 -1.1819 -3.2599 -0.1434 -0.9533 -0.8148 -0.0544 1.0003 -0.7584 3.6326 0.3259 5.9698 -0.5613 0.0640 6.5180 -2.7784 9.4415 -9.4938 -8.2727 0.4601 3.3408 -5.6820 6.2921 0.7903 -14.5561 0.0000 0.0000 11.4985 4.6157 -4.6103 -18.3854 0.0000 0.0000 0.0000 -0.0000 -0.0000 0.0000 -1.7065 -6.3755 9.4854 -4.8682 0.8726 -0.1133 -0.0000 -0.0000 -8.2810 -5.0446 -16.1183 12.5043 0.0000 -0.0000 -0.0000 0.0000 0.0000 -0.0000 0.5687 0.0447 -57.4762 3.8169 0.0000 0.0000 -8.5134 -3.8932 51.9874 -0.9600 0.0000 -0.0000 4.8678 1.3637 23.2965 -7.6201 0.0000 -0.0000 -4.0876 -3.9715 -11.9323 -0.0344 0.0000 -0.0000
 -1.0751 -116.8189 23.1466 -1.3208 -3.4572 173.8349 -1.1788 -3.2790 -0.1591 -0.9473 -0.8188 -0.0580 1.0463 -0.7442 3.6288 0.3331 5.9947 -0.5760 0.0011 6.5517 -2.8113 9.4087 -9.4736 -8.3968 0.3640 3.2214 -5.6511 6.3001 0.8115 -14.5076 0.0000 0.0000 11.5048 4.6464 -4.4789 -18.3555 -0.0000 0.0000 -0.0000 -0.0000 0.0000 -0.0000 -1.7865 -6.3009 9.4952 -4.9245 0.8549 -0.1631 -0.0000 -0.0000 -8.2829 -5.0334 -16.1163 12.5352 0.0000 0.0000 -0.0000 0.0000 0.0000 0.0000 0.5103 0.1014 -57.3547 3.9060 0.0000 0.0000 -8.5671 -3.8530 51.8481 -0.9813 0.0000 -0.0000 4.8486 1.3911 23.1606 -7.6554 0.0000 -0.0000 -4.0527 -4.0186 -11.8240 -0.0225 0.0000 -0.0000
 -1.0851 -116.8303 23.1455 -1.3347 -3.4493 173.8584 -1.1802 -3.3065 -0.1795 -0.9396 -0.8219 -0.0609 1.1065 -0.7294 3.6193 0.3420 6.0256 -0.5935 -0.0820 6.5928 -2.8541 9.3618 -9.4426 -8.5527 0.2561 3.0772 -5.6131 6.3092 0.8288 -14.4467 0.0000 0.0000 11.5017 4.6990 -4.3188 -18.3116 0.0000 0.0000 0.0000 0.0000 0.0000 -0.0000 -1.8850 -6.2087 9.4998 -4.9936 0.8338 -0.2184 -0.0000 -0.0000 -8.2806 -5.0234 -16.1153 12.5690 0.0000 0.0000 0.0000 -0.0000 -0.0000 0.0000 0.4354 0.1639 -57.2282 4.0057 0.0000 0.0000 -8.6161 -3.8096 51.6940 -1.0003 0.0000 -0.0000 4.8198 1.4214 22.9986 -7.7029 0.0000 -0.0000 -4.0067 -4.0790 -11.6994 -0.0118 0.0000 -0.0000
 -1.0968 -116.8436 23.1442 -1.3425 -3.4442 173.8902 -1.1688 -3.3396 -0.2028 -0.9318 -0.8247 -0.0655 1.1772 -0.7153 3.6035 0.3529 6.0602 -0.6125 -0.1851 6.6410 -2.9063 9.2987 -9.3980 -8.7374 0.1417 2.9172 -5.5665 6.3210 0.8343 -14.3749 0.0000 0.0000 11.4862 4.7770 -4.1311 -18.2513 -0.0000 -0.0000 0.0000 0.0000 -0.0000 0.0000 -1.9977 -6.1027 9.4991 -5.0740 0.8138 -0.2780 -0.0000 -0.0000 -8.2732 -5.0110 -16.1132 12.6026 0.0000 -0.0000 -0.0000 0.0000 0.0000 0.0000 0.3600 0.2315 -57.1044 4.1133 0.0000 0.0000 -8.6585 -3.7666 51.5327 -1.0101 0.0000 -0.0000 4.7974 1.4552 22.8166 -7.7649 0.0000 -0.0000 -3.9478 -4.1496 -11.5640 -0.0030 0.0000 -0.0000
 -1.1103 -116.8592 23.1429 -1.3831 -3.4366 173.9270 -1.1897 -3.3781 -0.2279 -0.9207 -0.8257 -0.0725 1.2616 -0.7030 3.5824 0.3669 6.1005 -0.6341 -0.3094 6.6942 -2.9664 9.2173 -9.3424 -8.9490 0.0244 2.7365 -5.5130 6.3323 0.8328 -14.2969 0.0000 0.0000 11.4610 4.8789 -3.9203 -18.1737 0.0000 0.0000 0.0000 -0.0000 -0.0000 0.0000 -2.1241 -5.9831 9.4973 -5.1595 0.7925 -0.3482 -0.0000 -0.0000 -8.2589 -5.0012 -16.1152 12.6377 -0.0000 -0.0000 0.0000 -0.0000 -0.0000 0.0000 0.2422 0.3052 -56.9765 4.2302 0.0000 0.0000 -8.6964 -3.7219 51.3578 -1.0062 0.0000 -0.0000 4.7356 1.4919 22.6261 -7.8316 0.0000 -0.0000 -3.8802 -4.2291 -11.4280 0.0050 0.0000 0.0000
